# xmcd CD database file
#
# Track frame offsets:
#	150
#	14453
#	31068
#	48800
#	65751
#	78804
#
# Disc length: 1241 seconds
#
# Revision: 0
# Processed by: cddbd v1.5.2PL0 Copyright (c) Steve Scherf et al.
# Submitted via: CDex 1.90
#
DISCID=3d04d706
DTITLE=The Delta Saints - Bird Called Angola
DYEAR=2010
DGENRE=Blues
TTITLE0=Bird Called Angola
TTITLE1=Good In White
TTITLE2=Company of Thieves
TTITLE3=Callin Me Home
TTITLE4=Swamp Groove
TTITLE5=Voodoo Walk
EXTD=YEAR: 2010
EXTT0=
EXTT1=
EXTT2=
EXTT3=
EXTT4=
EXTT5=
PLAYORDER=
